<svg width="36" height="36" viewBox="0 0 36 36" fill="none" xmlns="http://www.w3.org/2000/svg">
<rect width="36" height="36" fill="white"/>
<path d="M9 13C9 12.4696 9.21071 11.9609 9.58579 11.5858C9.96086 11.2107 10.4696 11 11 11H25C25.5304 11 26.0391 11.2107 26.4142 11.5858C26.7893 11.9609 27 12.4696 27 13M9 13V23C9 23.5304 9.21071 24.0391 9.58579 24.4142C9.96086 24.7893 10.4696 25 11 25H25C25.5304 25 26.0391 24.7893 26.4142 24.4142C26.7893 24.0391 27 23.5304 27 23V13M9 13L18 19L27 13" stroke="black" stroke-width="2" stroke-linecap="round" stroke-linejoin="round"/>
</svg>
